<svg xmlns="http://www.w3.org/2000/svg" viewBox="0 0 285.46 250"><defs><style>.cls-1{fill:#fff;}.cls-2{fill:#39d6b9;}.cls-3{fill:#0e848f;}</style></defs><g id="Layer_2" data-name="Layer 2"><g id="Layer_1-2" data-name="Layer 1"><path class="cls-1" d="M127.61,181.19l53.12,28.5-11.38,21.22a36.21,36.21,0,0,1-49,14.78L99.11,234.31Z"/><path class="cls-2" d="M281.15,206.15l-11.41,21.24-76.48-41.06-53.09-28.5,52.44-97.72a36.2,36.2,0,0,1,49-14.78l21.24,11.41-41,76.48,44.6,23.94A36.19,36.19,0,0,1,281.15,206.15Z"/><path class="cls-3" d="M145.31,92.18,92.84,189.9a36.14,36.14,0,0,1-49,14.75l-21.25-11.4,41.06-76.48L19.07,92.83a36.16,36.16,0,0,1-14.76-49L15.72,22.62l76.47,41Z"/><path class="cls-1" d="M157.85,68.82,104.73,40.29l11.38-21.21a36.23,36.23,0,0,1,49-14.76L186.34,15.7Z"/></g></g></svg>