<svg width="48" height="48" viewBox="0 0 48 48" fill="none" xmlns="http://www.w3.org/2000/svg">
<path d="M48 24C48 37.2548 37.2548 48 24 48C10.7452 48 0 37.2548 0 24C0 10.7452 10.7452 0 24 0C37.2548 0 48 10.7452 48 24Z" fill="#E6EDFF"/>
<path d="M30.5704 22.5208H26.9993V14.2C26.9993 12.2584 25.9477 11.8655 24.6649 13.3217L15.9164 23.272C14.8416 24.4855 15.2924 25.4793 16.9103 25.4793H20.4813V33.8002C20.4813 35.7417 21.533 36.1347 22.8158 34.6785L31.5642 24.7282C32.639 23.5147 32.1883 22.5208 30.5704 22.5208Z" fill="#2D59FD"/>
</svg>
