<svg width="48" height="48" viewBox="0 0 48 48" fill="none" xmlns="http://www.w3.org/2000/svg">
<path d="M48 24C48 37.2548 37.2548 48 24 48C10.7452 48 0 37.2548 0 24C0 10.7452 10.7452 0 24 0C37.2548 0 48 10.7452 48 24Z" fill="#E6EDFF"/>
<path d="M28.2569 20.1C30.607 22.45 30.607 26.2641 28.2569 28.6142C25.9069 30.9642 22.0928 30.9642 19.7427 28.6142C17.3927 26.2641 17.3927 22.45 19.7427 20.1C22.0928 17.7499 25.9069 17.7499 28.2569 20.1Z" fill="#2D59FD"/>
<path fill-rule="evenodd" clip-rule="evenodd" d="M13.7331 23.0561C13.4345 25.3291 13.8872 27.5636 15.0237 29.5381C16.1987 31.5607 17.9517 33.0921 20.1187 33.9589C20.2054 33.9878 20.3017 34.0071 20.3884 34.0071C20.6677 34.0071 20.947 33.8337 21.053 33.5544C21.1975 33.1788 21.0145 32.7646 20.6485 32.6105C18.7896 31.8689 17.2775 30.5494 16.2758 28.8157C15.303 27.1206 14.9178 25.1943 15.1682 23.2391C15.2163 22.8442 14.937 22.4782 14.5421 22.4301C14.1569 22.3819 13.7812 22.6612 13.7331 23.0561Z" fill="#2D59FD"/>
<path fill-rule="evenodd" clip-rule="evenodd" d="M29.3843 17.2577C29.7021 17.4985 30.1548 17.4407 30.3956 17.1229C30.6364 16.8051 30.5786 16.3524 30.2607 16.1116C28.4404 14.7247 26.2733 13.9927 24.0003 13.9927C21.6695 13.9927 19.4639 14.7536 17.6339 16.1886C17.3161 16.4391 17.2583 16.8917 17.5087 17.1999C17.6532 17.3829 17.8651 17.4793 18.0769 17.4793C18.231 17.4793 18.3852 17.4311 18.52 17.3252C20.0995 16.0923 21.9969 15.4374 24.0003 15.4374C25.9555 15.4374 27.8143 16.0634 29.3843 17.2577Z" fill="#2D59FD"/>
<path fill-rule="evenodd" clip-rule="evenodd" d="M34.2575 23.066C34.2094 22.6711 33.8337 22.3918 33.4485 22.4399C33.0536 22.4881 32.7743 22.8541 32.8224 23.249C33.0825 25.1945 32.6972 27.1208 31.7148 28.816C30.7131 30.5496 29.201 31.8595 27.3421 32.6107C26.9665 32.7649 26.7931 33.1886 26.9376 33.5546C27.0532 33.8339 27.3229 34.0073 27.6118 34.0073C27.7081 34.0073 27.7948 33.988 27.8719 33.9688C30.0389 33.0923 31.8015 31.5706 32.9669 29.5479C34.1034 27.5735 34.5465 25.3294 34.2575 23.066Z" fill="#2D59FD"/>
</svg>
