<svg width="358" height="109" viewBox="0 0 358 109" fill="none" xmlns="http://www.w3.org/2000/svg">
<g clip-path="url(#clip0_337_696)">
<path d="M68 29.6599L45.13 17.3599L50 8.21995C50.9704 6.41037 52.2884 4.81002 53.8783 3.5106C55.4682 2.21117 57.2988 1.23819 59.2654 0.647388C61.2319 0.0565896 63.2957 -0.140416 65.3385 0.0676552C67.3813 0.275727 69.363 0.884787 71.17 1.85995L80.3 6.76995L68 29.6599Z" fill="#8A99AF"/>
<path d="M238.87 49.4403V108.13H220.7V43.5303H233C234.56 43.5434 236.051 44.1716 237.15 45.2782C238.249 46.3849 238.867 47.8805 238.87 49.4403Z" fill="#8A99AF"/>
<path d="M345.86 0.129883C342.51 0.129883 339.8 0.819883 339.8 6.18988V52.7499C334.2 43.7499 326.36 39.7499 317.22 39.7499C298.8 39.7499 285.61 54.5099 285.61 73.8499C285.61 93.1899 298.8 108.07 317.22 108.07C321.569 108.128 325.872 107.175 329.79 105.287C333.709 103.399 337.135 100.627 339.8 97.1899V106.11H358V0.129883H345.86ZM322.48 92.6399C312.14 92.6399 304.55 84.9299 304.55 74.1499C304.55 63.3699 312.14 55.6499 322.48 55.6499C332.82 55.6499 340.35 63.3599 340.35 74.1499C340.35 84.9399 332.89 92.6399 322.48 92.6399Z" fill="#8A99AF"/>
<path d="M55.0001 78.0801L77.8801 90.3601L73.0001 99.5101C71.0438 103.155 67.7198 105.874 63.7592 107.069C59.7985 108.263 55.5256 107.836 51.8801 105.88L42.7101 101L55.0001 78.0801Z" fill="#8A99AF"/>
<path d="M62.62 39.72L40 81.83C39.0335 83.6343 37.7206 85.2303 36.1367 86.5267C34.5527 87.8231 32.7286 88.7944 30.7688 89.3851C28.809 89.9758 26.752 90.1743 24.7154 89.9693C22.6789 89.7642 20.7027 89.1596 18.9 88.19L9.75005 83.28L27.45 50.28L8.22005 40C6.41577 39.0334 4.81977 37.7206 3.52338 36.1366C2.227 34.5526 1.25565 32.7285 0.664933 30.7688C0.0742139 28.809 -0.124289 26.752 0.0807818 24.7154C0.285853 22.6788 0.890473 20.7027 1.86005 18.9L6.77005 9.75L39.7701 27.43L62.62 39.72Z" fill="#8A99AF"/>
<path d="M209.6 67.5699V108.13H191.43V71.4599C191.43 61.8699 186.14 56.2899 177.52 56.2899C168.58 56.2899 163.17 62.2899 163.17 69.8299V108.13H145V0.129883H157.08C158.695 0.129883 160.244 0.771506 161.386 1.9136C162.528 3.0557 163.17 4.60471 163.17 6.21988V51.2199C165.882 48.2289 169.203 45.8538 172.91 44.2548C176.617 42.6557 180.624 41.8697 184.66 41.9499C199.38 41.9399 209.6 52.2199 209.6 67.5699Z" fill="#8A99AF"/>
<path d="M240.71 19.8102C240.712 21.9684 240.074 24.0787 238.876 25.8741C237.679 27.6696 235.975 29.0695 233.982 29.8968C231.989 30.7241 229.795 30.9416 227.678 30.5217C225.561 30.1019 223.616 29.0636 222.089 27.5382C220.562 26.0128 219.522 24.0689 219.1 21.9523C218.679 19.8357 218.894 17.6415 219.72 15.6474C220.545 13.6533 221.943 11.9488 223.738 10.7495C225.532 9.55027 227.642 8.91016 229.8 8.91016C232.691 8.9128 235.463 10.0617 237.508 12.105C239.553 14.1483 240.705 16.9192 240.71 19.8102Z" fill="#8A99AF"/>
<path d="M286.55 57.8798C285.368 57.6163 284.161 57.4789 282.95 57.4698C274.95 57.4698 268.14 63.9098 268.14 75.4698V108.08H250V49.5898C250 47.9929 250.63 46.4605 251.754 45.3258C252.877 44.191 254.403 43.5456 256 43.5298H268.11V54.1298C272.4 45.5498 279.87 41.5098 287.9 41.5098C291.8 41.5098 295.52 41.9198 298.44 43.5598C293.123 47.0241 288.978 52.0161 286.55 57.8798Z" fill="#8A99AF"/>
<path d="M121.16 88.8396L116.24 97.9996L83.29 80.2997L60.41 67.9996L83 25.8996C84.958 22.2589 88.281 19.5442 92.2391 18.3517C96.1972 17.1592 100.467 17.5865 104.11 19.5397L113.26 24.4497L95.58 57.4496L114.8 67.7197C118.441 69.6796 121.156 73.0043 122.349 76.9641C123.541 80.9238 123.114 85.1948 121.16 88.8396Z" fill="#8A99AF"/>
</g>
<defs>
<clipPath id="clip0_337_696">
<rect width="357.97" height="108.13" fill="white"/>
</clipPath>
</defs>
</svg>
