<svg width="48" height="48" viewBox="0 0 48 48" fill="none" xmlns="http://www.w3.org/2000/svg">
<path d="M48 24C48 37.2548 37.2548 48 24 48C10.7452 48 0 37.2548 0 24C0 10.7452 10.7452 0 24 0C37.2548 0 48 10.7452 48 24Z" fill="#E6EDFF"/>
<path d="M35.5579 24.0001C35.5579 30.3832 30.3833 35.5578 24.0001 35.5578C17.617 35.5578 12.4424 30.3832 12.4424 24.0001C12.4424 17.6169 17.617 12.4423 24.0001 12.4423C30.3833 12.4423 35.5579 17.6169 35.5579 24.0001Z" fill="#2D59FD"/>
<path d="M24.1606 33.1499C21.6062 33.1499 19.1564 32.1859 17.3502 30.47C15.5439 28.7541 14.5292 26.4268 14.5292 24.0001C14.5292 21.5734 15.5439 19.2461 17.3502 17.5301C19.1564 15.8142 21.6062 14.8502 24.1606 14.8502V24.0001V33.1499Z" fill="#E6EDFF"/>
<path d="M29.9395 18.2212C29.9395 21.4128 27.3522 24.0001 24.1606 24.0001C20.9691 24.0001 18.3818 21.4128 18.3818 18.2212C18.3818 15.0296 20.9691 12.4423 24.1606 12.4423C27.3522 12.4423 29.9395 15.0296 29.9395 18.2212Z" fill="#2D59FD"/>
<path d="M29.1369 28.575C29.1369 31.1017 26.9808 33.1499 24.3212 33.1499C21.6615 33.1499 19.5054 31.1017 19.5054 28.575C19.5054 26.0483 21.6615 24.0001 24.3212 24.0001C26.9808 24.0001 29.1369 26.0483 29.1369 28.575Z" fill="#E6EDFF"/>
</svg>
