<svg width="45" height="45" viewBox="0 0 45 45" fill="none" xmlns="http://www.w3.org/2000/svg">
<g opacity="0.4">
<path d="M45 22.5C45 34.9264 34.9264 45 22.5 45C10.0736 45 0 34.9264 0 22.5C0 10.0736 10.0736 0 22.5 0C34.9264 0 45 10.0736 45 22.5Z" fill="#D9B57C"/>
<path d="M12.485 28.5667C12.9677 28.7872 13.5377 28.5751 13.7586 28.0927L13.7707 28.0694C13.7833 28.0444 13.8048 28.0025 13.836 27.9466C13.8986 27.8346 13.9995 27.6661 14.1429 27.4598C14.43 27.0466 14.8849 26.4862 15.5435 25.9236C16.8476 24.8097 18.9859 23.6538 22.3077 23.6538C25.7202 23.6538 27.9086 24.8139 29.2379 25.9289C29.9093 26.4919 30.3716 27.0524 30.6626 27.4651C30.8079 27.6711 30.9096 27.8395 30.9728 27.9511C31.0044 28.0069 31.0262 28.0483 31.0389 28.0732C31.0452 28.0855 31.0491 28.0937 31.0509 28.0976C31.0515 28.0987 31.0519 28.0995 31.0521 28.0998C31.0519 28.0996 31.052 28.099 31.0517 28.0983C31.0515 28.098 31.0511 28.098 31.0509 28.0976L31.0506 28.0961C31.2734 28.5776 31.8442 28.7876 32.3261 28.5652C32.8082 28.3426 33.0185 27.7714 32.796 27.2893L31.8232 27.7385C31.8551 27.7237 31.8884 27.7083 31.9231 27.6923C32.7961 27.2894 32.7959 27.2887 32.7956 27.2882C32.7955 27.2879 32.7954 27.2874 32.7952 27.287C32.7948 27.2862 32.7942 27.2854 32.7937 27.2844C32.7928 27.2824 32.7919 27.2799 32.7907 27.2773C32.7883 27.2721 32.785 27.2656 32.7813 27.2581C32.774 27.243 32.7643 27.2232 32.752 27.1991C32.7273 27.1508 32.6923 27.0848 32.6465 27.0038C32.5549 26.842 32.4193 26.6197 32.2341 26.357C31.864 25.8322 31.2926 25.1426 30.4736 24.4558C28.8222 23.0707 26.2028 21.7308 22.3077 21.7308C18.4908 21.7308 15.9174 23.0749 14.2946 24.461C13.49 25.1483 12.9277 25.8381 12.5635 26.3623C12.3812 26.6247 12.2477 26.8469 12.1575 27.0083C12.1123 27.0891 12.0777 27.1547 12.0534 27.2029C12.0413 27.227 12.0317 27.2468 12.0245 27.2619C12.0209 27.2694 12.0179 27.2759 12.0155 27.281C12.0143 27.2836 12.0134 27.2858 12.0125 27.2878C12.012 27.2888 12.0113 27.2896 12.011 27.2904L12.0106 27.2915C12.0103 27.2921 12.01 27.2927 12.8846 27.6923L12.0102 27.2927C11.7896 27.7756 12.002 28.346 12.485 28.5667Z" fill="#FDFDFD"/>
<path d="M15.0113 18.5723C15.9224 18.8165 16.9004 18.2476 16.718 17.3221C16.6075 16.761 16.3699 16.2328 16.0234 15.7778C15.6769 15.3229 15.2308 14.9534 14.7193 14.6977C14.2078 14.4421 13.6446 14.307 13.0727 14.3028C12.5009 14.2987 11.9357 14.4257 11.4206 14.6739C10.9055 14.9222 10.4541 15.2852 10.1011 15.7351C9.7481 16.185 9.50287 16.7098 9.38423 17.2692C9.18853 18.192 10.1582 18.7749 11.0728 18.5439L12.5605 18.1682C12.8787 18.0878 13.2121 18.0902 13.5291 18.1752L15.0113 18.5723Z" fill="#FDFDFD"/>
<path d="M33.8574 18.5723C34.7686 18.8165 35.7466 18.2476 35.5642 17.3221C35.4536 16.761 35.216 16.2328 34.8695 15.7778C34.5231 15.3229 34.077 14.9534 33.5655 14.6977C33.054 14.4421 32.4907 14.307 31.9189 14.3028C31.3471 14.2987 30.7819 14.4257 30.2668 14.6739C29.7516 14.9222 29.3003 15.2852 28.9473 15.7351C28.5943 16.185 28.349 16.7098 28.2304 17.2692C28.0347 18.192 29.0043 18.7749 29.9189 18.5439L31.4067 18.1682C31.7248 18.0878 32.0583 18.0902 32.3753 18.1752L33.8574 18.5723Z" fill="#FDFDFD"/>
</g>
</svg>
