<svg width="45" height="45" viewBox="0 0 45 45" fill="none" xmlns="http://www.w3.org/2000/svg">
<g opacity="0.4">
<path d="M45 22.5C45 34.9264 34.9264 45 22.5 45C10.0736 45 0 34.9264 0 22.5C0 10.0736 10.0736 0 22.5 0C34.9264 0 45 10.0736 45 22.5Z" fill="#D97C7C"/>
<path d="M28.1999 31.3545C30.547 32.1239 33.336 30.9781 33.0192 28.5286C32.8362 27.113 32.2215 25.7557 31.2297 24.5766C30.2379 23.3976 28.8995 22.4333 27.3331 21.7692C25.7668 21.1051 24.0208 20.7617 22.2498 20.7694C20.4788 20.777 18.7375 21.1355 17.1801 21.8131C15.6227 22.4907 14.2973 23.4665 13.3214 24.654C12.3454 25.8416 11.7489 27.2042 11.5848 28.6212C11.3002 31.0786 14.107 32.1943 16.4507 31.4023L20.4884 30.0379C21.6694 29.6388 22.9479 29.6329 24.1325 30.0212L28.1999 31.3545Z" fill="#FDFDFD"/>
<path d="M15.9184 17.6962C16.4368 17.6073 16.7955 17.1064 16.579 16.6271C16.3502 16.1207 16.0098 15.6678 15.5787 15.3047C14.9026 14.7355 14.0469 14.4238 13.1631 14.425C12.2793 14.4261 11.4244 14.7399 10.7498 15.3109C10.3195 15.6751 9.98034 16.1288 9.75287 16.6358C9.5376 17.1157 9.89759 17.6156 10.4162 17.7032C10.9347 17.7908 11.4116 17.4116 11.7444 17.0044C11.8151 16.9179 11.8939 16.8376 11.9802 16.7646C12.3115 16.4841 12.7314 16.33 13.1655 16.3294C13.5996 16.3289 14.0199 16.482 14.352 16.7616C14.4385 16.8343 14.5175 16.9145 14.5884 17.0008C14.9222 17.4071 15.4001 17.7851 15.9184 17.6962Z" fill="#FDFDFD"/>
<path d="M34.7646 17.6962C35.2829 17.6073 35.6416 17.1064 35.4251 16.6271C35.1964 16.1207 34.856 15.6678 34.4248 15.3047C33.7488 14.7355 32.8931 14.4238 32.0093 14.425C31.1255 14.4261 30.2706 14.7399 29.5959 15.3109C29.1657 15.6751 28.8265 16.1288 28.599 16.6358C28.3838 17.1157 28.7437 17.6156 29.2623 17.7032C29.7809 17.7908 30.2578 17.4116 30.5906 17.0044C30.6613 16.9179 30.7401 16.8376 30.8263 16.7646C31.1577 16.4841 31.5776 16.33 32.0117 16.3294C32.4458 16.3289 32.8661 16.482 33.1982 16.7616C33.2846 16.8343 33.3636 16.9145 33.4345 17.0008C33.7684 17.4071 34.2462 17.7851 34.7646 17.6962Z" fill="#FDFDFD"/>
</g>
</svg>
