<svg width="45" height="45" viewBox="0 0 45 45" fill="none" xmlns="http://www.w3.org/2000/svg">
<g opacity="0.4">
<path d="M45 22.5C45 34.9264 34.9264 45 22.5 45C10.0736 45 0 34.9264 0 22.5C0 10.0736 10.0736 0 22.5 0C34.9264 0 45 10.0736 45 22.5Z" fill="#7DE99A"/>
<path d="M28.1999 21.7224C30.5469 20.953 33.336 22.0988 33.0192 24.5484C32.8362 25.9639 32.2215 27.3213 31.2297 28.5003C30.2378 29.6793 28.8995 30.6436 27.3331 31.3077C25.7668 31.9718 24.0208 32.3152 22.2498 32.3076C20.4788 32.2999 18.7375 31.9414 17.1801 31.2638C15.6227 30.5862 14.2973 29.6104 13.3213 28.4229C12.3454 27.2354 11.7489 25.8727 11.5848 24.4557C11.3002 21.9983 14.107 20.8826 16.4507 21.6746L20.4884 23.0391C21.6694 23.4382 22.9479 23.444 24.1325 23.0557L28.1999 21.7224Z" fill="#FDFDFD"/>
<path d="M15.9184 17.6962C16.4367 17.6073 16.7955 17.1064 16.579 16.6271C16.3502 16.1207 16.0098 15.6678 15.5787 15.3047C14.9026 14.7355 14.0469 14.4238 13.1631 14.425C12.2793 14.4261 11.4244 14.7399 10.7498 15.3109C10.3195 15.6751 9.98034 16.1288 9.75287 16.6358C9.5376 17.1157 9.89759 17.6156 10.4162 17.7032C10.9347 17.7908 11.4116 17.4116 11.7444 17.0044C11.8151 16.9179 11.8939 16.8376 11.9802 16.7646C12.3115 16.4841 12.7314 16.33 13.1655 16.3294C13.5996 16.3289 14.0199 16.482 14.352 16.7616C14.4385 16.8343 14.5175 16.9145 14.5884 17.0007C14.9222 17.4071 15.4001 17.7851 15.9184 17.6962Z" fill="#FDFDFD"/>
<path d="M34.7645 17.6962C35.2829 17.6073 35.6416 17.1064 35.4251 16.6271C35.1963 16.1207 34.856 15.6678 34.4248 15.3047C33.7487 14.7355 32.893 14.4238 32.0092 14.425C31.1254 14.4261 30.2705 14.7399 29.5959 15.3109C29.1657 15.6751 28.8265 16.1288 28.599 16.6358C28.3837 17.1157 28.7437 17.6156 29.2623 17.7032C29.7808 17.7908 30.2577 17.4116 30.5906 17.0044C30.6612 16.9179 30.74 16.8376 30.8263 16.7646C31.1576 16.4841 31.5776 16.33 32.0117 16.3294C32.4458 16.3289 32.8661 16.482 33.1982 16.7616C33.2846 16.8343 33.3636 16.9145 33.4345 17.0007C33.7684 17.4071 34.2462 17.7851 34.7645 17.6962Z" fill="#FDFDFD"/>
</g>
</svg>
